# xmcd
#
# Track frame offsets: 
#        150
#        35868
#        64504
#        89045
#        115096
#        144995
#        175915
#        214099
#        245771
#        269037
#
# Disc length: 4023 seconds
#
# Revision: 0
# Processed by: cddbd v1.5.2PL0 Copyright (c) Steve Scherf et al.
# Submitted via: ExactAudioCopy v0.99pb3
#
DISCID=9b0fb50a
DTITLE=Dave Specter - Live In Chicago
DYEAR=2008
DGENRE=Blues
TTITLE0=Boss Funk/Riverside Ride
TTITLE1=What Love Did To Me
TTITLE2=How I Got To Memphis
TTITLE3=What's Your Angle
TTITLE4=Texas Top
TTITLE5=Feel So Bad
TTITLE6=Out On The Road
TTITLE7=Is What It Is
TTITLE8=In Too Deep
TTITLE9=Angel
EXTD=
EXTT0=
EXTT1=
EXTT2=
EXTT3=
EXTT4=
EXTT5=
EXTT6=
EXTT7=
EXTT8=
EXTT9=
PLAYORDER=
